HIERARCHY
ROOT Hips
{
	OFFSET -13.091600 -28.302996 44.698402
	CHANNELS 6 Xposition Yposition Zposition Zrotation Xrotation Yrotation
	JOINT Chest
	{
		OFFSET -0.673000 0.623899 5.369202
		CHANNELS 6 Xposition Yposition Zposition Zrotation Xrotation Yrotation
		JOINT Chest2
		{
			OFFSET 0.000000 0.000000 4.415001
			CHANNELS 6 Xposition Yposition Zposition Zrotation Xrotation Yrotation
			JOINT Neck
			{
				OFFSET 0.000000 0.000002 10.273300
				CHANNELS 6 Xposition Yposition Zposition Zrotation Xrotation Yrotation
				JOINT Head
				{
					OFFSET 0.000000 0.000000 2.173897
					CHANNELS 6 Xposition Yposition Zposition Zrotation Xrotation Yrotation
					End Site
					{
						OFFSET 0.000000 0.000000 9.961800
					}
				}
			}
			JOINT LeftCollar
			{
				OFFSET 2.359900 -0.565201 5.928101
				CHANNELS 6 Xposition Yposition Zposition Zrotation Xrotation Yrotation
				JOINT LeftShoulder
				{
					OFFSET 5.443700 0.000000 0.000000
					CHANNELS 6 Xposition Yposition Zposition Zrotation Xrotation Yrotation
					JOINT LeftElbow
					{
						OFFSET 0.000000 0.000000 -10.615799
						CHANNELS 6 Xposition Yposition Zposition Zrotation Xrotation Yrotation
						JOINT LeftWrist
						{
							OFFSET 0.000000 -0.000002 -13.110302
							CHANNELS 6 Xposition Yposition Zposition Zrotation Xrotation Yrotation
							End Site
							{
								OFFSET 0.000000 0.000000 -2.173901
							}
						}
					}
				}
			}
			JOINT RightCollar
			{
				OFFSET -2.636600 -1.718800 6.889698
				CHANNELS 6 Xposition Yposition Zposition Zrotation Xrotation Yrotation
				JOINT RightShoulder
				{
					OFFSET -4.139101 0.000000 0.000000
					CHANNELS 6 Xposition Yposition Zposition Zrotation Xrotation Yrotation
					JOINT RightElbow
					{
						OFFSET 0.000000 0.000000 -10.471802
						CHANNELS 6 Xposition Yposition Zposition Zrotation Xrotation Yrotation
						JOINT RightWrist
						{
							OFFSET 0.000000 0.000000 -12.281898
							CHANNELS 6 Xposition Yposition Zposition Zrotation Xrotation Yrotation
							End Site
							{
								OFFSET 0.000000 -0.000002 -2.173901
							}
						}
					}
				}
			}
		}
	}
	JOINT LeftHip
	{
		OFFSET 2.273400 0.176701 -2.518002
		CHANNELS 6 Xposition Yposition Zposition Zrotation Xrotation Yrotation
		JOINT LeftKnee
		{
			OFFSET 0.000000 -0.000002 -20.456402
			CHANNELS 6 Xposition Yposition Zposition Zrotation Xrotation Yrotation
			JOINT LeftAnkle
			{
				OFFSET 0.000000 -0.000002 -16.635300
				CHANNELS 6 Xposition Yposition Zposition Zrotation Xrotation Yrotation
				End Site
				{
					OFFSET 0.000000 -8.812399 0.000001
				}
			}
		}
	}
	JOINT RightHip
	{
		OFFSET -1.914800 0.018101 -2.699299
		CHANNELS 6 Xposition Yposition Zposition Zrotation Xrotation Yrotation
		JOINT RightKnee
		{
			OFFSET 0.000000 -0.000002 -20.148901
			CHANNELS 6 Xposition Yposition Zposition Zrotation Xrotation Yrotation
			JOINT RightAnkle
			{
				OFFSET 0.000000 -0.000002 -16.838301
				CHANNELS 6 Xposition Yposition Zposition Zrotation Xrotation Yrotation
				End Site
				{
					OFFSET 0.000000 -8.328398 0.000001
				}
			}
		}
	}
}
MOTION
Frames: 4
Frame Time: 0.041667
-10.311200 -20.730597 28.717302 344.271259 33.909895 0.107669 -0.673004 0.623902 5.369208 13.745954 8.321832 -13.713799 0.000001 0.000007 4.415006 -12.243865 -3.315753 -2.023258 0.000002 0.000005 10.273294 -34.026151 7.508980 -21.204741 0.000003 0.000000 2.173891 -2.861079 -4.481174 -4.631462 2.359898 -0.565197 5.928091 -19.281016 18.561522 -24.603950 5.443697 0.000009 0.000002 91.083803 203.413347 -265.878473 0.000001 -0.000003 -10.615787 181.810046 -161.063565 181.789556 0.000004 -0.000008 -13.110296 -142.428979 -176.684604 173.973360 -2.636605 -1.718803 6.889691 5.150512 4.282219 -18.292609 -4.139091 0.000001 -0.000007 220.289501 -171.587684 278.612869 -0.000004 -0.000005 -10.471796 -0.617423 1.765561 -0.581329 -0.000007 0.000000 -12.281900 -37.539205 30.882301 46.481739 2.273396 0.176703 -2.518003 -26.288203 -156.080505 -77.267621 0.000003 -0.000001 -20.456396 21.057948 173.270302 -79.156121 -0.000009 -0.000001 -16.635302 53.564420 5.850227 27.459725 -1.914800 0.018103 -2.699303 28.931295 190.676342 72.517327 0.000005 -0.000002 -20.148909 143.605916 58.701569 -77.821475 -0.000001 -0.000003 -16.838303 3.054861 32.128131 -3.855964
-9.819596 -20.673599 28.539501 345.072304 33.971039 0.113830 -0.673003 0.623892 5.369210 13.032945 8.840675 -13.993430 -0.000000 0.000005 4.415001 -10.512021 -3.415895 -1.851417 -0.000001 0.000000 10.273302 -35.101210 7.776562 -21.298022 -0.000003 -0.000005 2.173897 -2.928361 -4.434665 -5.018190 2.359899 -0.565199 5.928098 -18.601733 18.596910 -24.850532 5.443698 0.000002 -0.000003 90.962164 202.703567 -266.274433 -0.000001 -0.000002 -10.615797 182.605435 -159.860236 182.274144 -0.000004 -0.000006 -13.110297 -143.248301 -176.291035 175.648819 -2.636604 -1.718804 6.889698 4.961349 4.341562 -19.172397 -4.139093 -0.000003 0.000001 220.397664 -171.633078 279.133821 -0.000002 -0.000004 -10.471803 -1.178241 1.919036 -0.794560 -0.000007 -0.000000 -12.281905 -36.959045 30.812578 46.775331 2.273401 0.176702 -2.518007 -26.055107 -156.063197 -76.222739 0.000006 -0.000002 -20.456396 21.950350 173.283484 -78.160286 -0.000006 -0.000004 -16.635305 53.331381 5.834812 27.559340 -1.914796 0.018097 -2.699297 28.144568 189.834753 72.727649 -0.000002 -0.000005 -20.148907 141.896087 60.067894 -75.533525 0.000003 -0.000004 -16.838305 5.075855 33.242742 -4.166750
-9.339598 -20.623693 28.366903 345.937060 33.783222 0.018293 -0.673002 0.623896 5.369203 12.275868 9.626380 -14.275538 -0.000001 -0.000001 4.415007 -8.718297 -3.495161 -1.660351 0.000006 0.000003 10.273296 -36.278113 8.052744 -21.228542 0.000002 -0.000002 2.173901 -2.916110 -4.349938 -5.491090 2.359900 -0.565199 5.928100 -17.772174 18.573021 -25.104762 5.443693 0.000000 0.000000 90.703157 201.906744 -266.753257 0.000000 0.000001 -10.615799 183.392410 -158.609301 182.826064 -0.000002 -0.000008 -13.110296 -143.944707 -175.874093 177.083514 -2.636605 -1.718800 6.889698 4.556104 4.177317 -19.990135 -4.139100 -0.000004 0.000003 220.615821 -171.770132 279.461179 -0.000005 -0.000000 -10.471801 -1.746888 2.074753 -1.015156 -0.000001 0.000002 -12.281898 -36.361021 30.662348 47.206262 2.273395 0.176702 -2.518004 -25.961844 -155.888809 -75.424037 0.000004 -0.000001 -20.456398 22.808498 173.351936 -77.216805 -0.000010 -0.000004 -16.635302 52.995458 5.781953 27.719348 -1.914798 0.018105 -2.699302 27.302940 189.321765 73.019456 0.000000 -0.000008 -20.148899 139.837045 61.513121 -73.012257 0.000000 -0.000004 -16.838303 7.292080 34.171938 -4.583626
-8.874996 -20.576998 28.199200 346.816898 33.947980 -0.082821 -0.673004 0.623899 5.369209 11.504815 10.067787 -14.504161 0.000001 0.000003 4.415006 -6.947484 -3.575697 -1.355632 0.000004 -0.000003 10.273301 -36.991990 8.235702 -21.357935 -0.000002 -0.000002 2.173893 -3.318304 -4.267039 -5.780728 2.359900 -0.565205 5.928104 -16.818446 18.593856 -25.339428 5.443691 0.000004 -0.000004 90.452817 200.941379 -267.305191 -0.000003 -0.000000 -10.615794 184.065306 -157.298355 183.404513 -0.000005 -0.000005 -13.110299 -144.289263 -175.495700 177.392389 -2.636606 -1.718808 6.889701 4.109175 3.946031 -20.898214 -4.139103 -0.000003 -0.000001 220.920092 -171.915288 279.701110 0.000005 -0.000002 -10.471797 -2.081760 2.240305 -1.208490 -0.000001 0.000001 -12.281895 -35.915279 30.511531 47.679502 2.273398 0.176708 -2.518002 -25.825907 -156.001302 -74.459492 0.000003 -0.000000 -20.456398 23.672034 173.405772 -76.289047 -0.000003 -0.000004 -16.635302 52.377562 5.627503 27.976569 -1.914798 0.018110 -2.699299 26.419009 188.588285 73.171058 0.000002 -0.000002 -20.148903 137.458445 62.836900 -70.271718 0.000001 -0.000005 -16.838305 9.505518 35.092767 -5.157744
